<?xml version="1.0" encoding="utf-8"?>
<!-- Generator: Adobe Illustrator 22.1.0, SVG Export Plug-In . SVG Version: 6.00 Build 0)  -->
<svg version="1.1" id="Camada_2" xmlns="http://www.w3.org/2000/svg" xmlns:xlink="http://www.w3.org/1999/xlink" x="0px" y="0px"
	 viewBox="0 0 1140 300" style="enable-background:new 0 0 1140 300;" xml:space="preserve">
<style type="text/css">
	.st0{fill:none;stroke:#000000;stroke-miterlimit:10;}
</style>
<path class="st0" d="M1139,314v-8.8l-35.9-4.3l28.4-97.7l7.6,0.9v-14.7l-18.6-2.2l5-22l13.6-1.8V159l-12.6,1.6l11-48.6l1.5,0.2V3.8
	l-4.1,17.9l-42.6,1.6l-1.9-23.1h-6.8l2.1,23.5l-36.2,1.4l-1.7-24.8h-13.7l1.7,25.4l-50.2,1.9l7.6-27.4h-13.9L972,26.7L896.3,14
	l4-13.8h-23.1l-7.7,26.5l-52.1,5.6L811,0.2h-13.7l6.5,33.5l-50.9,5.4l-21.8-28.2c13-2.4,34.8-6.4,58.4-10.7h-48.9L725.1,3l-2.3-2.8
	h-25.4l5.3,6.8c-8,1.4-18.6,3.2-29.1,5.1c-1.7-2.9-4-7.2-6.7-12h-7.2l7.3,13.2c-12.7,2.2-24,4.2-28.5,5l-32.8-6.5l2.2-11.6h-6.9
	l-1.8,10.3l-41.9-8.2l1.1-2.1h-14.5l-5.5,9.5l-35.9-9.5h-12.6l-11.2,18.1L427.2,7c2.2-2.3,4.2-4.5,6.2-6.8h-15.9
	c-7.3,8.2-15.7,16.1-25,23.5l-6.2-23.5h-13.9l1.7,6.5l-34.2,12.9L321.8,0.2h-8l42.5,45.6c-1,0.4-2.1,0.9-3,1.3
	c-13.6,5.6-31.3,9.7-51.6,12.8l6.8-59.7h-6.8l-6.9,60.7c-7.4,1.1-15.1,1.9-23.1,2.7l-7.4-63.4h-13.7l2.4,21.4l-82-6.3l-0.5-15.1
	h-13.7l0.5,14.1l-18.9-1.5L118.2,0.2h-9.7l19,11.8l-69-5.3l1.3-6.5h-6.9l-1.2,5.9L24.2,4l0.9-3.8H2L1.2,3.8v108.5l59,6.8l10.1,30.9
	L1.2,159v4.4l20.6-2.8l6.7,32l-27.3-3.2v14.7l30,3.6L8.4,305.9L1.2,305v8.8"/>
<path class="st0" d="M73.8,73.3c23,1,49.9,2,78,2.2l-0.3,4.3L70.4,95.4L73.8,73.3z"/>
<path class="st0" d="M45.7,63.2l7.7-27l74.5,5.9c-0.8,5.1-2.8,17.7-3.9,24.4C94.2,65.6,66.9,64.4,45.7,63.2z"/>
<path class="st0" d="M222.4,120.1l8.9,49.2c-20.3,1.4-81.4,5.9-103.2,7.5l9.5-51.6L222.4,120.1z"/>
<polygon class="st0" points="151.1,84.3 148.9,115.9 131.7,117 115.7,115.1 111.1,92 "/>
<polygon class="st0" points="229.7,175.7 232.9,193.6 121.8,202.2 125.2,183.3 "/>
<path class="st0" d="M697.6,172.2L685,200.4L633.2,213c-7.6-13.4-13.6-26.6-16.9-34.5L697.6,172.2z"/>
<polygon class="st0" points="629.8,143.2 669.7,140.2 674.1,157.8 633.1,160.9 "/>
<path class="st0" d="M776,321.1l24-47.5l41.3,4.9c-3,8.8-10.3,30-17.2,49.8"/>
<polyline class="st0" points="832.4,324.5 848.1,279.2 898.9,285.2 832.4,324.5 "/>
<polyline class="st0" points="387.4,307.8 394.4,289.1 473,284.4 481.6,306 387.4,307.8 "/>
<polygon class="st0" points="394.4,251.5 466.3,267.4 469.7,275.9 400.3,280 "/>
<path class="st0" d="M754.2,316.9l-53.5-12.3l13-20.6c19.2,7,38,13.2,48.7,16.6L754.2,316.9"/>
<polyline class="st0" points="637.7,325.5 669.4,297.1 685.9,304.7 664,339.6 "/>
<path class="st0" d="M544.3,308.4l27.6-12.6l16.2,8.7L556.4,318"/>
<polygon class="st0" points="361.6,282.4 351,225.3 381.4,222.5 393.5,280.4 "/>
<polyline class="st0" points="348.7,318.4 361,291.1 387.2,289.5 374.6,323.7 "/>
<path class="st0" d="M766.6,292.3c-22.7-7.3-74.3-24.5-98-37.4c-1.2-0.6-2.3-1.3-3.3-2l54.9-29.8l61.6,39.4L766.6,292.3z"/>
<polygon class="st0" points="683.9,231.4 665.9,209.6 687.1,204.4 710.3,216.9 "/>
<path class="st0" d="M678.5,234.3L657.1,246c-8-7.7-15.3-18.2-21.5-28.8l24-5.8L678.5,234.3z"/>
<path class="st0" d="M659.8,261.4c10.5,5.8,25.9,12.2,41.9,18.2l-13.1,20.9l-63.2-29l29.2-13.3C656.2,259.3,658,260.4,659.8,261.4
	L659.8,261.4z"/>
<polyline class="st0" points="632.4,322.7 577.7,293.3 619.5,274.2 663.9,294.5 632.4,322.7 "/>
<polygon class="st0" points="580.5,281.3 568.3,255.7 598.6,246.5 611.3,267.4 "/>
<polygon class="st0" points="566.2,251.4 556.5,231 577.9,212.5 596.1,242.4 "/>
<polyline class="st0" points="508.4,314.1 486.6,259.3 552.1,251.4 568.8,286.6 508.4,314.1 "/>
<polygon class="st0" points="484.8,255.2 459.1,190.6 520.8,185.8 550.1,247.1 "/>
<polygon class="st0" points="464.3,262.4 393.3,246.7 388.2,221.8 445.9,216.4 "/>
<polygon class="st0" points="350.2,221 346.1,199.4 436.3,192.4 444.3,212.2 "/>
<polygon class="st0" points="342.2,185.2 335.2,166.5 431.6,169.3 435.2,178 "/>
<polygon class="st0" points="347,277.5 282.3,230.4 279.6,204.6 332.5,200.4 "/>
<path class="st0" d="M277,190.2l-4.6-18.5c18.3-1.8,39-3.8,49.1-4.8l7.2,19.3L277,190.2z"/>
<polygon class="st0" points="272.8,205.1 275.3,229.4 246.6,231.1 247.6,207.1 "/>
<path class="st0" d="M277.5,233.5l68.5,49.8l-101.8,6.1l2.2-54C255.6,234.9,272.1,233.8,277.5,233.5L277.5,233.5z"/>
<polyline class="st0" points="831.4,331 906.4,286.8 943.9,315.8 "/>
<path class="st0" d="M909.1,254.9l-53.4-4.5c1.7-6.4,3.2-12.3,4-15.4l52.7,6.7L909.1,254.9z"/>
<path class="st0" d="M908.1,259.2l-4.5,17.8l-53-6.3c1-3.9,2.6-9.9,4.1-16L908.1,259.2z"/>
<polygon class="st0" points="843.8,270 804.2,265.3 821.9,230.2 853.1,234.2 "/>
<polygon class="st0" points="786.5,253.2 730.6,217.3 774.3,193.5 810.6,205.3 "/>
<path class="st0" d="M715.6,214.1l-24-12.9l13.2-29.6l81.6-6.3c1.1,2.7,2.8,5.2,5,7.6L715.6,214.1z"/>
<polygon class="st0" points="687.8,156.8 676.9,113.4 723.4,108.9 734.3,153.2 "/>
<path class="st0" d="M646.4,251.3L617,264.7l-34.2-56.2l23.5-20.1C614.1,205.7,628.6,234.1,646.4,251.3z"/>
<path class="st0" d="M554.1,225.9l-19.5-41l68-5.3c0.4,1.1,0.9,2.2,1.4,3.4L554.1,225.9z"/>
<polygon class="st0" points="546.5,167.5 524.5,169.2 487,131.7 546.6,126 "/>
<polygon class="st0" points="517,169.8 459.9,174.1 482.5,135.3 "/>
<polygon class="st0" points="448.9,167.9 418.3,94.2 483.7,108.6 "/>
<polygon class="st0" points="432.7,162.9 379.6,161.4 365.4,111.6 410.3,109 "/>
<polygon class="st0" points="372.5,161.2 336.2,160.1 319.1,114.3 358.5,112 "/>
<polygon class="st0" points="322.5,160.7 273.6,165.4 268.9,147.1 315.9,143.1 "/>
<path class="st0" d="M270.2,190.8l-23.7,1.9l-3.2-18.1c5.3-0.5,13.3-1.3,22.3-2.2L270.2,190.8z"/>
<polyline class="st0" points="241.5,353.6 243.8,298.1 313.8,293.9 278.1,363.1 "/>
<polyline class="st0" points="998,336.3 930.8,285 1011.1,294.4 998,336.3 "/>
<polygon class="st0" points="921.3,275.3 934.8,222.8 1030.6,231.5 1013.5,286.1 "/>
<polygon class="st0" points="972.7,217.6 980.6,182.5 1043.6,189.9 1033.2,223 "/>
<polygon class="st0" points="977.4,167.6 951.5,164.6 959.7,135.5 985.9,137.3 "/>
<path class="st0" d="M973.9,181.7c-2.2,9.8-6,27.2-7.8,35.2l-28.9-2.6l9.3-35.9L973.9,181.7z"/>
<path class="st0" d="M938,163l-49.4-5.8c0-0.6,0.1-1.2,0.1-1.8c0-4.3-1.4-8.5-4.1-12.4l46.6-17.5l12.7,17.1L938,163z"/>
<path class="st0" d="M928.4,179.1l-14.8,58.4l-89.5-11.4l19.1-37.8c14.5-1.6,27.1-7.2,34.5-15.3L928.4,179.1z"/>
<path class="st0" d="M838.7,172.3c-15,0-27.1-7.6-27.1-16.9c0-9.3,12.2-16.9,27.1-16.9c15,0,27.1,7.6,27.1,16.9c0,0,0,0,0,0
	C865.8,164.7,853.7,172.2,838.7,172.3L838.7,172.3z"/>
<path class="st0" d="M819.7,187.4l-7.1,13.8l-32.8-10.6l19.9-10.8C805.4,183.2,812.2,185.8,819.7,187.4L819.7,187.4z"/>
<path class="st0" d="M789.9,149l-48.6,3.7l-11.1-44.4l52-5.1l22.9,29.2C797.4,136.8,792.1,142.6,789.9,149z"/>
<polygon class="st0" points="665.7,105.8 662.3,88.8 761.6,77.1 775.8,95.2 "/>
<polygon class="st0" points="663.4,114.7 668.7,136 629.1,139 625.4,118.4 "/>
<polygon class="st0" points="626.4,161.5 553.4,167 553.5,125.3 618.7,119 "/>
<polygon class="st0" points="555.7,116.5 579.2,64.2 608,71 591.4,113.1 "/>
<polygon class="st0" points="548.3,117.2 489.7,122.9 530.8,52.8 572.7,62.7 "/>
<polygon class="st0" points="486,104.5 452.4,97.2 464.3,70.8 500.3,80.1 "/>
<polygon class="st0" points="446,95.7 416.3,89.1 401.9,54.5 458,69.1 "/>
<polygon class="st0" points="406.7,100.5 313.1,106.2 308.8,87.3 396.6,76.4 "/>
<polygon class="st0" points="314.2,139 267.8,142.8 261.4,117.8 305.4,115.1 "/>
<polygon class="st0" points="262.1,147.6 266.9,166 244.9,168.1 241.5,149.3 "/>
<polygon class="st0" points="240.6,145.1 236,119.3 254.5,118.2 261,143.4 "/>
<path class="st0" d="M233.8,208.1l-1,23.8c-10.9,0.6-32.7,1.9-41.6,2.4l1.4-23L233.8,208.1z"/>
<polyline class="st0" points="146.4,339.2 180.1,304.7 178,340.6 "/>
<polyline class="st0" points="184.8,340.9 187.3,298.6 230.2,296.7 228.2,342.9 "/>
<polygon class="st0" points="187.6,294.2 188.6,277.3 230.9,278 230.3,292.3 "/>
<polygon class="st0" points="189.1,268.6 190.9,238.5 232.5,236.2 231.2,269.3 "/>
<polygon class="st0" points="124,216.6 185.9,211.8 184.5,234.5 121.1,234.1 "/>
<polygon class="st0" points="184.2,238.7 182.5,268.4 115.9,267.4 120.5,238.4 "/>
<polyline class="st0" points="158.8,318.1 113.6,281.8 114.5,275.9 181.8,277.1 180.7,295.9 158.8,318.1 "/>
<polyline class="st0" points="104.9,337.3 112.7,288 155.1,322.1 "/>
<polygon class="st0" points="93.3,265.3 65.9,262.9 79.4,213.4 101.1,216 "/>
<polyline class="st0" points="1009.8,342.8 1024.5,295.9 1081.5,302.6 1066.5,351.4 "/>
<polygon class="st0" points="1101.3,296.3 1027,287.7 1039.4,248.1 1112.7,257.3 "/>
<polygon class="st0" points="1139,25.8 1131.1,60 1100.5,59.7 1097.7,27.4 "/>
<polygon class="st0" points="1100.1,68.3 1129.1,68.6 1113.5,136.2 1090.1,136.2 "/>
<polygon class="st0" points="1089.6,140.4 1112.6,140.5 1103,182.4 1083.7,180.1 "/>
<polygon class="st0" points="1076.8,179.3 1064,177.8 1056.8,67.8 1093.2,68.2 "/>
<polygon class="st0" points="1090.7,27.6 1093.6,59.6 1056.2,59.2 1054.3,29.1 "/>
<polygon class="st0" points="1057.1,191.4 1129.7,199.9 1114,253 1040.7,243.8 "/>
<path class="st0" d="M1050.2,176.2l-66-7.7c2.6-9.3,6.9-25.2,8.5-30.7l55.3,3.7L1050.2,176.2z"/>
<polygon class="st0" points="1047.6,137 960.8,131.3 967.2,108.2 1045.6,107.7 "/>
<polygon class="st0" points="989,31.6 1040.7,29.5 1042.7,61.3 980.6,61 "/>
<polygon class="st0" points="979.4,65.2 1043,65.6 1045.4,103.5 968.5,104 "/>
<polygon class="st0" points="899.3,18.1 975.2,30.7 967,59.7 890.9,45.7 "/>
<polygon class="st0" points="965.9,64 947.9,127.8 890.1,50 "/>
<path class="st0" d="M885.6,64.3l42.6,57.3l-46.8,17.6c-3.8-3.9-8.9-7.2-14.9-9.7L885.6,64.3z"/>
<path class="st0" d="M872.3,30.8l-27.7,93.7c-1.7-0.1-3.2-0.2-4.9-0.2L822.2,36L872.3,30.8z"/>
<path class="st0" d="M808.7,37.5l17.5,87.8c-0.3,0.1-0.7,0.1-1,0.2l-65.2-82.8L808.7,37.5z"/>
<polygon class="st0" points="712.6,14.8 758.5,73.2 713.2,78.6 681.7,20.2 "/>
<path class="st0" d="M675,21.3c6.6,12,26.1,48.5,31.4,58l-45,5.3l-12-58.9L675,21.3z"/>
<polygon class="st0" points="652.1,107.2 598.6,112.4 614.3,72.6 646.6,80.2 "/>
<polygon class="st0" points="645.7,75.4 581.3,60.2 596.5,39.5 640.4,49.4 "/>
<polygon class="st0" points="606.3,20.1 635.6,25.8 639.5,44.6 599,35.5 "/>
<polygon class="st0" points="555.6,10.3 599.7,18.8 591.5,36 575,58.6 533.1,48.6 "/>
<polygon class="st0" points="498.4,3 539.1,13.6 530.4,28.6 488.1,19.4 "/>
<polygon class="st0" points="483.7,27.5 525.6,36.6 502.6,76.1 466.2,66.6 "/>
<path class="st0" d="M422.6,14.4l54.7,11.8L459.7,65l-60.2-15.6l-5.1-12.4C404.8,30,414.2,22.4,422.6,14.4L422.6,14.4z"/>
<path class="st0" d="M345.9,23l32.2-12l5.5,20.7c-5.9,3.9-12.3,7.6-19,10.9L345.9,23z"/>
<path class="st0" d="M363.4,53.7c7-2.9,13.7-6.1,19.8-9.6l11.7,28.2l-87,10.8L304.6,68C327.6,64.6,347.8,59.9,363.4,53.7L363.4,53.7
	z"/>
<path class="st0" d="M297.9,68.9l8.5,37.7l-91.1,5.5l-4.5-36.8C241.2,74.2,271.1,72.3,297.9,68.9L297.9,68.9z"/>
<path class="st0" d="M256.5,30.1l4,33.9c-27.1,2.1-56.5,2.9-85.3,3l-1.7-43.2L256.5,30.1z"/>
<path class="st0" d="M203.8,75.3l4.6,37.1l-52.6,3.1l2.7-39.9C173.5,75.7,188.7,75.6,203.8,75.3L203.8,75.3z"/>
<path class="st0" d="M138.6,21.1l21.1,1.6l0.6,17.5l-25-1.9C136.2,34.4,137.7,26.2,138.6,21.1z"/>
<path class="st0" d="M160.6,44.5l0.9,22.4c-10.3-0.1-20.6-0.2-30.5-0.4l3.7-24.1L160.6,44.5z"/>
<polygon class="st0" points="23.8,12.4 131.9,20.6 128.7,37.7 20,29.2 "/>
<path class="st0" d="M18.9,33.5l27.7,2.2l-7.7,27.1C28,62.1,19.1,61.5,12.6,61L18.9,33.5z"/>
<path class="st0" d="M61.3,108.9l-58.2-6.7l7.6-32.7c11.7,0.9,31.5,2.2,56.2,3.4L61.3,108.9z"/>
<polygon class="st0" points="69.5,100 104.4,93.2 108.6,114.3 68,109.6 "/>
<polygon class="st0" points="67.4,120 121.9,126.3 108.1,202.2 93.7,200.5 "/>
<polygon class="st0" points="28.7,159.8 71.6,154.2 86.5,199.6 35.6,193.5 "/>
<polyline class="st0" points="21.7,307.5 44.6,209.3 72.8,212.6 45.8,310.3 "/>
<polyline class="st0" points="52.6,311.1 64.8,267.1 92.8,269.6 85.6,315 "/>
</svg>
