<svg id="Camada_1" data-name="Camada 1" xmlns="http://www.w3.org/2000/svg" xmlns:xlink="http://www.w3.org/1999/xlink" viewBox="0 0 1072.19 859.16"><defs><style>.cls-1{fill:url(#linear-gradient);}.cls-2{fill:url(#linear-gradient-2);}.cls-3{fill:aqua;}.cls-4{fill:#f0f;}.cls-5{fill:#fff;}.cls-6{font-size:237.18px;fill:#f7f7f8;font-family:HarlowSolid, Harlow Solid Italic;font-style:italic;}</style><linearGradient id="linear-gradient" x1="207.83" y1="591.74" x2="784.89" y2="258.57" gradientUnits="userSpaceOnUse"><stop offset="0.07" stop-color="#ef10ff"/><stop offset="0.72" stop-color="aqua"/></linearGradient><linearGradient id="linear-gradient-2" x1="263.37" y1="507.1" x2="924.32" y2="507.1" gradientUnits="userSpaceOnUse"><stop offset="0.57" stop-color="#ef10ff"/><stop offset="1" stop-color="aqua"/></linearGradient></defs><title>LOGO</title><path class="cls-1" d="M731.75,194.79c-68.49-53.87-158.64-78-244.53-82l-.47,0-.48,0c-85.89-4-177.9,11.62-251.11,58.89-153,98.77-80.28,324.88-8.23,453.12,46.14,82.14,130,157.77,181.29,199.43a76.29,76.29,0,0,0,90.45,4.21c54.94-36.72,145.44-104.21,199-181.69C781.4,525.73,874.87,307.37,731.75,194.79Z" transform="translate(-3 -112.15)"/><path class="cls-2" d="M850.13,225.2c-68.49-53.88-158.64-78-244.53-82h-.47l-.48,0c-85.89-4-177.9,11.61-251.12,58.88-153,98.77-80.27,324.88-8.22,453.13,46.14,82.13,130,157.76,181.28,199.42A76.28,76.28,0,0,0,617,858.8C672,822.09,762.49,754.6,816.09,677.11,899.78,556.13,993.24,337.77,850.13,225.2Z" transform="translate(-3 -112.15)"/><path d="M792.49,257.45c-70.93-50.63-162.11-70.51-248.1-70.51h-.95c-86,0-177.16,19.88-248.09,70.51-148.21,105.79-65,328.26,12.92,453C358.2,790.37,445.48,862,498.67,901.22a76.24,76.24,0,0,0,90.54,0C642.38,862,729.64,790.35,779.56,710.47,857.52,585.71,940.7,363.24,792.49,257.45Z" transform="translate(-3 -112.15)"/><text x="-3" y="-112.15"></text><polygon class="cls-3" points="717.36 859.16 987.52 626.5 933.32 582.4 1072.19 376.18 816.19 614.54 867.5 648.86 717.36 859.16"/><polygon class="cls-4" points="354.83 859.16 84.66 626.5 138.87 582.4 0 376.18 256 614.54 204.69 648.86 354.83 859.16"/><path class="cls-5" d="M523.82,687.73l-9.2,71.58a24.94,24.94,0,1,0,9.16,22.62l8.57-66.74,65.42-10-5.45,42.36a25,25,0,1,0,8.74,25h.11l12.68-98.57Zm0,0" transform="translate(-3 -112.15)"/><text class="cls-6" transform="translate(337.54 406.21) scale(0.86 1)">E.M</text></svg>